<svg width="33" height="33" viewBox="0 0 33 33" fill="none" xmlns="http://www.w3.org/2000/svg">
<path d="M16.509 8.09162C14.9177 8.08807 13.3902 8.71681 12.2624 9.83952C11.1347 10.9622 10.4992 12.4869 10.4956 14.0782L10.4876 17.6642L9.77906 18.3696C9.63894 18.5092 9.54334 18.6871 9.50434 18.881C9.46534 19.0749 9.4847 19.2759 9.55996 19.4588C9.63522 19.6417 9.76301 19.7981 9.92718 19.9084C10.0913 20.0186 10.2845 20.0777 10.4823 20.0782L22.4822 20.105C22.68 20.1054 22.8734 20.0471 23.0381 19.9376C23.2027 19.8281 23.3312 19.6722 23.4073 19.4897C23.4834 19.3071 23.5036 19.1062 23.4655 18.9121C23.4273 18.7181 23.3325 18.5397 23.193 18.3995L22.4876 17.691L22.4956 14.105C22.4991 12.5137 21.8704 10.9862 20.7477 9.85843C19.625 8.73071 18.1003 8.09517 16.509 8.09162ZM16.4733 24.0916C15.6777 24.0898 14.9153 23.772 14.354 23.2082C13.7926 22.6443 13.4782 21.8805 13.48 21.0849L19.48 21.0983C19.4782 21.8939 19.1605 22.6563 18.5966 23.2176C18.0327 23.779 17.269 24.0934 16.4733 24.0916Z" fill="#5B6871"/>
</svg>
