<svg width="25" height="25" viewBox="0 0 25 25" fill="none" xmlns="http://www.w3.org/2000/svg">
<path fill-rule="evenodd" clip-rule="evenodd" d="M20.4911 12.1807C20.4864 14.3024 19.639 16.3354 18.1354 17.8323C16.6317 19.3293 14.595 20.1676 12.4733 20.1629C10.3516 20.1581 8.31862 19.3108 6.82168 17.8071C5.32473 16.3035 4.48641 14.2668 4.49114 12.1451C4.49587 10.0233 5.34326 7.99039 6.84689 6.49344C8.35052 4.9965 10.3872 4.15818 12.509 4.16291C14.6307 4.16764 16.6636 5.01503 18.1606 6.51866C19.6575 8.02229 20.4958 10.059 20.4911 12.1807ZM12.4978 9.1629C12.3221 9.16233 12.1494 9.20807 11.997 9.29551C11.8446 9.38295 11.7179 9.509 11.6297 9.66096C11.566 9.7787 11.4793 9.88245 11.3748 9.96606C11.2702 10.0497 11.15 10.1114 11.0211 10.1477C10.8923 10.184 10.7575 10.194 10.6246 10.1772C10.4918 10.1604 10.3638 10.1171 10.248 10.0499C10.1323 9.98268 10.0312 9.8929 9.95075 9.78589C9.87033 9.67888 9.81221 9.55681 9.77984 9.42692C9.74747 9.29703 9.74151 9.16197 9.76231 9.02974C9.78311 8.8975 9.83025 8.77079 9.90093 8.65711C10.2324 8.08596 10.7431 7.64014 11.3538 7.38881C11.9645 7.13747 12.641 7.09465 13.2785 7.26699C13.916 7.43933 14.4788 7.8172 14.8797 8.342C15.2805 8.8668 15.497 9.5092 15.4956 10.1696C15.4944 10.7902 15.3008 11.3952 14.9415 11.9012C14.5822 12.4072 14.0748 12.7894 13.4893 12.9951L13.4889 13.1651C13.4883 13.4303 13.3824 13.6845 13.1944 13.8716C13.0065 14.0587 12.7519 14.1635 12.4867 14.1629C12.2215 14.1623 11.9673 14.0564 11.7802 13.8684C11.5931 13.6805 11.4883 13.4259 11.4889 13.1607L11.4911 12.1607C11.4917 11.8954 11.5976 11.6413 11.7856 11.4542C11.9735 11.2671 12.2281 11.1623 12.4934 11.1629C12.7586 11.1635 13.0132 11.0587 13.2011 10.8716C13.3891 10.6845 13.495 10.4303 13.4956 10.1651C13.4962 9.89991 13.3914 9.64532 13.2043 9.45737C13.0171 9.26941 12.763 9.16349 12.4978 9.1629ZM12.48 17.1629C12.7452 17.1635 12.9998 17.0587 13.1877 16.8716C13.3757 16.6844 13.4816 16.4303 13.4822 16.1651C13.4828 15.8999 13.378 15.6453 13.1909 15.4574C13.0038 15.2694 12.7497 15.1635 12.4844 15.1629C12.2192 15.1623 11.9646 15.2671 11.7767 15.4542C11.5887 15.6413 11.4828 15.8954 11.4822 16.1607C11.4816 16.4259 11.5864 16.6805 11.7735 16.8684C11.9606 17.0564 12.2148 17.1623 12.48 17.1629Z" fill="#5B6871"/>
</svg>
